<svg width="31" height="32" viewBox="0 0 31 32" fill="none" xmlns="http://www.w3.org/2000/svg">
    <path d="M15.8088 8.45898L2 22.6905V29.8062H8.90438L22.7132 15.5747M15.8088 8.45898L20.7602 3.35579L20.7634 3.35277C21.4448 2.6503 21.7862 2.29844 22.1798 2.16666C22.5266 2.05057 22.8999 2.05057 23.2467 2.16666C23.6399 2.29836 23.981 2.6498 24.6616 3.35128L27.6646 6.44628C28.3482 7.15078 28.6901 7.50319 28.8182 7.90937C28.9309 8.26665 28.9307 8.65151 28.8182 9.00881C28.6903 9.4147 28.3489 9.76657 27.6662 10.4701L27.6646 10.4716L22.7132 15.5747M15.8088 8.45898L22.7132 15.5747"
          stroke="white" stroke-width="3" stroke-linecap="round" stroke-linejoin="round"/>
</svg>
